<svg width="126" height="115" viewBox="0 0 126 115" fill="none" xmlns="http://www.w3.org/2000/svg">
<g filter="url(#filter0_d_268_156)">
<path d="M42.9928 81.22H38.4928V91H33.5728V81.22H16.0528V77.2C19.1328 72.52 21.9128 67.96 24.3928 63.52C26.9128 59.08 28.9928 54.64 30.6328 50.2H36.1528C34.4728 54.56 32.4328 58.9 30.0328 63.22C27.6728 67.54 24.9528 72 21.8728 76.6H33.5728V69.16H38.4928V76.6H42.9928V81.22ZM76.8216 66.1V75.04C76.8216 80.48 75.6016 84.6 73.1616 87.4C70.7216 90.2 67.3216 91.6 62.9616 91.6C58.6016 91.6 55.2016 90.2 52.7616 87.4C50.3616 84.6 49.1616 80.48 49.1616 75.04V66.1C49.1616 60.7 50.3816 56.6 52.8216 53.8C55.2616 51 58.6416 49.6 62.9616 49.6C67.3216 49.6 70.7216 51 73.1616 53.8C75.6016 56.6 76.8216 60.7 76.8216 66.1ZM71.5416 66.1C71.5416 61.94 70.7816 58.94 69.2616 57.1C67.7816 55.26 65.6816 54.34 62.9616 54.34C60.2816 54.34 58.1816 55.26 56.6616 57.1C55.1816 58.94 54.4416 61.94 54.4416 66.1V75.04C54.4416 79.16 55.1816 82.18 56.6616 84.1C58.1816 85.98 60.2816 86.92 62.9616 86.92C65.6816 86.92 67.7816 85.98 69.2616 84.1C70.7816 82.18 71.5416 79.16 71.5416 75.04V66.1ZM110.258 81.22H105.758V91H100.838V81.22H83.3184V77.2C86.3984 72.52 89.1784 67.96 91.6584 63.52C94.1784 59.08 96.2584 54.64 97.8984 50.2H103.418C101.738 54.56 99.6984 58.9 97.2984 63.22C94.9384 67.54 92.2184 72 89.1384 76.6H100.838V69.16H105.758V76.6H110.258V81.22Z" fill="#F2C65D"/>
</g>
<g filter="url(#filter1_d_268_156)">
<path d="M40.729 16.0115C40.4378 16.0115 40.1103 16.0479 39.8192 16.1206C35.2705 17.1759 30.7946 18.5224 26.3914 20.0871C23.0799 21.2152 19.9504 22.7436 17.0029 24.6358C15.8384 25.4364 14.6739 26.2734 13.6186 27.2195C13.3275 27.4015 13.1092 27.6926 13 28.0201C13.3639 30.1307 15.3653 31.2952 17.112 32.1685C19.9868 33.4785 23.1891 34.2427 26.355 33.8788C25.4089 33.0782 24.0989 32.9691 23.1163 32.2413C22.7161 31.9502 22.7161 31.4043 22.6069 30.9676C21.6244 31.1496 20.7146 31.5135 19.7685 31.7682C20.6418 31.2224 21.6244 30.8221 22.5341 30.349C27.4467 28.2384 32.7596 27.3287 38.0361 26.6009C41.7115 26.2006 45.4596 26.055 49.0258 24.9633C48.7347 24.1628 48.5891 22.9983 47.5702 22.8527C45.3505 21.6883 44.2952 19.3229 43.0215 17.2851C42.5121 16.5209 41.6751 16.0115 40.729 16.0115Z" fill="white"/>
<path d="M86.2163 16.0115C85.4885 15.9751 84.7971 16.2298 84.3241 16.7393C83.5963 17.4671 83.196 18.4496 82.6501 19.2866C81.8859 20.6694 80.8306 21.8702 79.5206 22.7436C79.1931 22.9619 78.6473 22.9255 78.4653 23.3258C78.1742 23.8353 77.9558 24.3811 77.8467 24.9633C81.4129 26.0186 85.1246 26.1278 88.8 26.6009C94.6223 27.3287 100.481 28.384 105.794 31.004C106.231 31.2588 106.704 31.4771 107.14 31.7318C106.194 31.4771 105.248 31.186 104.266 30.8949C104.12 31.3679 104.084 31.9866 103.611 32.2777C102.628 32.9327 101.354 33.0419 100.481 33.8788C101.973 34.0608 103.501 33.988 104.993 33.6605C107.905 33.1146 110.852 32.0229 112.963 29.876H112.999C113.436 29.2573 113.727 28.4931 113.8 27.729C110.415 24.5994 106.303 22.2705 102.009 20.633C97.1696 18.8135 92.1842 17.2851 87.1624 16.1206C86.8713 16.0479 86.5438 16.0115 86.2163 16.0115Z" fill="white"/>
<path d="M63.3997 0C63.1814 0 62.963 0.181949 62.963 0.400287C62.1261 3.1659 61.3983 6.0043 59.7971 8.44241C59.2149 9.35216 58.4143 10.08 57.4682 10.5894C55.2484 11.863 52.7375 12.5908 50.2994 13.3186C49.9355 13.4278 49.5716 13.6461 49.3169 13.9373C49.5716 14.192 49.8991 14.3739 50.263 14.5195C52.8831 15.3565 55.6123 16.0843 57.9413 17.5762C59.3241 18.4496 60.161 19.9052 60.816 21.3608C61.6166 23.3986 62.3444 25.4364 62.9266 27.547C63.1086 28.1292 63.8364 27.8017 63.8364 27.2923C64.3822 25.2909 65.0372 23.3258 65.8014 21.3972L65.765 21.2516L65.9106 21.2152C66.3109 20.4146 66.7476 19.6868 67.257 18.959C67.9484 18.0129 68.9309 17.4307 69.9499 16.8848L71.0416 16.3754C72.7883 15.6476 74.6077 15.1017 76.3908 14.5559C76.7547 14.4103 77.337 14.3012 77.2278 13.7917C76.9003 13.537 76.5 13.355 76.0997 13.2459C73.7344 12.5181 71.3327 11.7903 69.1493 10.553C68.2032 10.0436 67.439 9.27938 66.8567 8.36963C65.3284 5.93152 64.5642 3.12952 63.7636 0.436677C63.8364 0.145559 63.6544 0 63.3997 0Z" fill="#F2C65D"/>
</g>
<defs>
<filter id="filter0_d_268_156" x="12.0527" y="49.6" width="102.206" height="50" filterUnits="userSpaceOnUse" color-interpolation-filters="sRGB">
<feFlood flood-opacity="0" result="BackgroundImageFix"/>
<feColorMatrix in="SourceAlpha" type="matrix" values="0 0 0 0 0 0 0 0 0 0 0 0 0 0 0 0 0 0 127 0" result="hardAlpha"/>
<feOffset dy="4"/>
<feGaussianBlur stdDeviation="2"/>
<feComposite in2="hardAlpha" operator="out"/>
<feColorMatrix type="matrix" values="0 0 0 0 0 0 0 0 0 0 0 0 0 0 0 0 0 0 0.25 0"/>
<feBlend mode="normal" in2="BackgroundImageFix" result="effect1_dropShadow_268_156"/>
<feBlend mode="normal" in="SourceGraphic" in2="effect1_dropShadow_268_156" result="shape"/>
</filter>
<filter id="filter1_d_268_156" x="9" y="0" width="108.8" height="41.9763" filterUnits="userSpaceOnUse" color-interpolation-filters="sRGB">
<feFlood flood-opacity="0" result="BackgroundImageFix"/>
<feColorMatrix in="SourceAlpha" type="matrix" values="0 0 0 0 0 0 0 0 0 0 0 0 0 0 0 0 0 0 127 0" result="hardAlpha"/>
<feOffset dy="4"/>
<feGaussianBlur stdDeviation="2"/>
<feComposite in2="hardAlpha" operator="out"/>
<feColorMatrix type="matrix" values="0 0 0 0 0 0 0 0 0 0 0 0 0 0 0 0 0 0 0.25 0"/>
<feBlend mode="normal" in2="BackgroundImageFix" result="effect1_dropShadow_268_156"/>
<feBlend mode="normal" in="SourceGraphic" in2="effect1_dropShadow_268_156" result="shape"/>
</filter>
</defs>
</svg>
