<svg width="180" height="95" viewBox="0 0 180 95" fill="none" xmlns="http://www.w3.org/2000/svg">
<path d="M68.9228 14.8953C68.652 14.8953 68.3473 14.9292 68.0765 14.9969C63.8449 15.9786 59.6809 17.2312 55.5847 18.6869C52.5041 19.7363 49.5928 21.1581 46.8507 22.9185C45.7674 23.6632 44.6841 24.4419 43.7023 25.322C43.4315 25.4913 43.2284 25.7621 43.1268 26.0668C43.4654 28.0303 45.3273 29.1136 46.9522 29.926C49.6266 31.1448 52.6057 31.8557 55.5509 31.5171C54.6707 30.7724 53.452 30.6708 52.538 29.9938C52.1656 29.7229 52.1656 29.2151 52.064 28.8089C51.15 28.9782 50.3037 29.3167 49.4235 29.5537C50.236 29.0459 51.15 28.6735 51.9963 28.2334C56.5665 26.2699 61.509 25.4236 66.4177 24.7465C69.8368 24.3742 73.3237 24.2387 76.6413 23.2232C76.3705 22.4784 76.235 21.3951 75.2872 21.2597C73.2221 20.1764 72.2404 17.9759 71.0555 16.0802C70.5816 15.3693 69.803 14.8953 68.9228 14.8953Z" fill="white"/>
<path d="M111.239 14.8953C110.562 14.8615 109.919 15.0985 109.479 15.5724C108.802 16.2495 108.429 17.1635 107.921 17.9421C107.21 19.2285 106.229 20.3457 105.01 21.1581C104.705 21.3613 104.198 21.3274 104.028 21.6998C103.757 22.1737 103.554 22.6815 103.453 23.2232C106.77 24.2049 110.223 24.3065 113.643 24.7465C119.059 25.4236 124.509 26.4053 129.452 28.8428C129.858 29.0797 130.298 29.2829 130.704 29.5198C129.824 29.2829 128.944 29.012 128.03 28.7412C127.895 29.1813 127.861 29.7568 127.421 30.0276C126.507 30.637 125.322 30.7385 124.509 31.5171C125.897 31.6864 127.319 31.6187 128.707 31.314C131.415 30.8062 134.157 29.7906 136.121 27.7933H136.155C136.561 27.2178 136.832 26.5069 136.9 25.796C133.751 22.8846 129.926 20.718 125.931 19.1947C121.429 17.502 116.791 16.0802 112.119 14.9969C111.848 14.9292 111.544 14.8953 111.239 14.8953Z" fill="white"/>
<path d="M90.0132 0C89.8101 0 89.607 0.169265 89.607 0.372383C88.8284 2.94521 88.1513 5.58574 86.6618 7.85389C86.1201 8.70022 85.3754 9.37728 84.4952 9.85122C82.4301 11.0361 80.0943 11.7131 77.8261 12.3902C77.4876 12.4917 77.1491 12.6949 76.9121 12.9657C77.1491 13.2027 77.4538 13.3719 77.7923 13.5073C80.2297 14.286 82.7687 14.963 84.9353 16.351C86.2217 17.1635 87.0003 18.5176 87.6097 19.8717C88.3544 21.7675 89.0315 23.6632 89.5731 25.6267C89.7424 26.1684 90.4194 25.8637 90.4194 25.3897C90.9272 23.5278 91.5366 21.6998 92.2475 19.9056L92.2137 19.7701L92.3491 19.7363C92.7214 18.9915 93.1277 18.3145 93.6016 17.6374C94.2448 16.7572 95.1589 16.2156 96.1067 15.7078L97.1223 15.2338C98.7473 14.5568 100.44 14.049 102.099 13.5412C102.437 13.4058 102.979 13.3042 102.877 12.8303C102.573 12.5933 102.2 12.424 101.828 12.3225C99.6275 11.6454 97.3932 10.9684 95.362 9.81736C94.4818 9.34342 93.7709 8.63251 93.2292 7.78619C91.8074 5.51804 91.0965 2.91136 90.3517 0.406236C90.4194 0.135412 90.2502 0 90.0132 0Z" fill="#F2C65D"/>
<path d="M36.8914 83.4769C34.4156 83.5048 31.9117 83.4769 29.436 83.5048C29.4641 83.9514 30.0268 83.9235 30.3362 84.091C31.0959 84.3143 31.7711 84.9842 31.7429 85.8216C31.7429 87.9151 31.7429 90.0365 31.7429 92.13C31.7711 92.9674 31.0959 93.6652 30.3362 93.8885C29.9986 94.0281 29.4922 94.0281 29.4078 94.4747C31.9117 94.5305 34.3875 94.4747 36.8914 94.5026C37.2008 94.4747 37.5947 94.6142 37.7917 94.2793C37.3978 94.0839 37.0039 93.9443 36.5819 93.8048C35.8786 93.5535 35.4003 92.8836 35.4003 92.13C35.4003 90.1481 35.4003 88.1663 35.4003 86.1845C35.344 85.6262 35.5128 85.0679 35.8786 84.6492C36.385 84.091 37.1727 84.0631 37.7917 83.6723C37.5947 83.3652 37.229 83.4769 36.8914 83.4769Z" fill="white"/>
<path d="M52.3542 83.485C50.4531 83.5687 48.5799 83.485 46.7067 83.5408L46.7626 83.8199C47.5454 84.1269 48.4121 84.5734 48.496 85.4943C48.5519 87.699 48.524 89.9316 48.524 92.1363C48.496 92.9457 47.9648 93.6434 47.182 93.8666C46.8185 94.0062 46.3432 94.0341 46.1755 94.4248C47.4336 94.5643 48.7197 94.4527 49.9778 94.4806C50.3413 94.4527 50.7886 94.5922 51.0682 94.3131C50.6488 93.9782 50.1176 93.7829 49.866 93.3085C49.6423 92.834 49.5305 92.3038 49.5864 91.7735C49.5864 89.82 49.5864 87.8665 49.5864 85.913C50.0058 86.6944 50.2574 87.5595 50.7327 88.2851L50.6767 88.4525L50.9004 88.7595C51.7112 90.6852 52.6059 92.5829 53.4446 94.5085C53.9758 94.2573 54.2554 93.7271 54.507 93.1968C55.5694 90.8247 56.6318 88.4805 57.6943 86.1083C57.6943 88.0339 57.6943 89.9875 57.6943 91.9131C57.6943 92.5271 57.5824 93.1968 57.1351 93.6434C56.8555 93.9224 56.3243 93.9782 56.2684 94.4248C58.4491 94.4527 60.6019 94.4248 62.7827 94.4527C63.0902 94.3969 63.5096 94.5643 63.7053 94.2294C63.1461 93.8945 62.4751 93.8666 61.9719 93.4201C61.5805 93.0852 61.3288 92.6108 61.3288 92.0805C61.3288 89.9875 61.3288 87.8665 61.3288 85.7734C61.3009 85.0199 61.7482 84.3501 62.4192 84.0711C62.6988 83.9315 63.1461 83.8757 63.202 83.485C61.3568 83.4571 59.5395 83.485 57.6943 83.4571C56.7996 85.4106 55.9329 87.3921 55.0382 89.3735C54.0876 87.42 53.2489 85.4106 52.3542 83.485Z" fill="white"/>
<path d="M72.8073 83.4852C72.5536 83.4571 72.2999 83.5132 72.0744 83.6255C72.3845 83.85 72.7228 84.0184 73.061 84.1588C73.6811 84.4675 74.0476 85.113 74.0476 85.8147C74.0476 87.9198 74.0476 90.0248 74.0476 92.1579C74.0758 92.9718 73.4275 93.7016 72.6664 93.898C72.3281 94.0664 71.7644 94.0384 71.708 94.4874C74.4986 94.5155 77.261 94.5155 80.0515 94.4874C80.0234 94.0664 79.5723 94.0664 79.2623 93.9261C78.5294 93.7296 77.8247 93.1683 77.7402 92.3824C77.6838 91.6527 77.7402 90.8949 77.712 90.137C78.9522 90.137 80.2207 90.1932 81.3764 89.716C82.3911 89.3231 83.3777 88.6214 83.7723 87.5829C84.0824 86.6567 83.8287 85.6463 83.124 85.0008C82.081 83.9342 80.5307 83.4852 79.065 83.4571C77.0637 83.4571 75.0623 83.4571 73.061 83.4571L72.8073 83.4852ZM77.712 84.243C78.7831 84.3272 79.7133 85.0569 79.9952 86.0673C80.277 87.0497 79.967 88.0882 79.2059 88.7618C78.9804 88.874 78.7831 89.0144 78.5858 89.1547C78.3039 89.2389 78.022 89.3231 77.7402 89.3512C77.7402 87.6671 77.7402 85.9551 77.712 84.243Z" fill="white"/>
<path d="M98.4238 83.5135C98.5892 83.8803 98.7545 84.2471 98.8924 84.6421C98.4789 85.5731 98.0654 86.5042 97.6795 87.4352C97.5968 87.6045 97.5141 87.7738 97.4314 87.9713C96.6596 89.6923 95.9429 91.4415 95.1711 93.1626C94.9506 93.6986 94.5371 94.0936 93.9858 94.2629C93.6551 94.4322 93.1589 94.404 93.0486 94.8554C94.3718 94.9118 95.6949 94.8554 97.018 94.8836C97.3212 94.8554 97.7071 94.9965 97.9276 94.6579C97.4039 94.2911 96.4667 94.3476 96.3288 93.5858C96.3564 92.7394 96.8801 92.0058 97.1834 91.2158C98.6994 91.2441 100.243 91.2158 101.787 91.2158C102.062 91.893 102.393 92.5137 102.586 93.1908C102.724 93.614 102.503 94.0372 102.09 94.1783C101.732 94.3758 101.153 94.3193 101.042 94.8272C103.468 94.8272 105.866 94.8554 108.292 94.799C108.182 94.3476 107.686 94.3758 107.355 94.2065C106.776 94.009 106.335 93.5294 106.114 92.9369C104.736 89.7769 103.358 86.617 101.98 83.4571C100.794 83.5135 99.6091 83.5135 98.4238 83.5135ZM99.4712 85.9399C100.078 87.3506 100.684 88.7613 101.291 90.1437H97.6244C98.2308 88.7613 98.8372 87.3506 99.4712 85.9399Z" fill="white"/>
<path d="M123.768 83.4587C122.51 83.4306 121.307 83.7675 120.216 84.3851C118.79 85.1992 117.671 86.659 117.476 88.3153C117.364 89.2417 117.504 90.1681 117.867 91.0383L118.035 91.291C119.014 93.228 121.139 94.3509 123.237 94.4913C125.055 94.6036 127.097 94.1825 128.355 92.7508C128.803 92.2174 129.278 91.5998 129.25 90.8418C128.803 91.291 128.551 91.8805 128.02 92.2455C126.509 93.5087 124.076 93.3403 122.678 91.9647C120.804 90.1681 121.056 86.6871 123.153 85.1992C124.552 84.2728 126.37 84.4693 127.572 85.6203C128.104 86.0975 128.383 86.7713 128.803 87.3327C128.943 86.266 128.915 85.1711 128.691 84.1044C128.271 84.1325 127.852 84.2448 127.404 84.2728C126.901 84.1605 126.453 83.936 125.95 83.7956C125.251 83.571 124.524 83.4587 123.768 83.4587Z" fill="white"/>
<path d="M138.779 83.4571C138.779 84.5779 138.779 85.6708 138.779 86.7916C138.999 86.8196 139.191 86.7916 139.246 86.5394C139.466 86.035 139.659 85.4466 140.182 85.1384C141.035 84.5219 142.135 84.7461 143.098 84.718C143.098 87.1839 143.098 89.6778 143.098 92.1437C143.126 92.9843 142.465 93.6849 141.695 93.909C141.392 94.0491 140.897 94.0491 140.815 94.4695C143.538 94.4975 146.29 94.5535 149.014 94.4414C148.656 93.853 147.775 93.9931 147.308 93.4887C146.262 92.6201 146.84 91.1349 146.647 89.958C146.647 89.874 146.647 89.7058 146.647 89.6218C146.73 87.9965 146.647 86.3433 146.675 84.718C147.72 84.7461 148.958 84.4939 149.784 85.3345C150.307 85.7268 150.252 86.5955 150.857 86.9037C151.077 85.7829 150.912 84.606 150.939 83.4851C146.922 83.4571 142.851 83.4571 138.779 83.4571Z" fill="white"/>
<path d="M35.1384 35.4407C35.3902 35.4741 35.57 35.5909 35.6779 35.7912L37.0266 41.1998C36.9547 41.6672 36.703 41.901 36.2714 41.901C35.7678 40.866 34.6888 40.2984 33.0344 40.1982H24.1328V68.4933C24.2766 70.9639 23.1617 72.7083 20.7879 73.7266C18.4141 74.7449 16.2562 75.3208 14.314 75.4543L13.8284 74.8534V40.1982H4.81891C3.27236 40.265 2.26531 40.8326 1.79775 41.901H1.528C1.13237 41.8008 0.898593 41.517 0.82666 41.0496L1.7438 35.7412C1.81573 35.5408 1.9596 35.4407 2.17539 35.4407H35.1384ZM14.314 75.4543C13.9903 75.4543 13.8284 75.2373 13.8284 74.8033C13.8284 74.3693 13.9903 74.1523 14.314 74.1523C14.6017 74.1523 14.7456 74.3693 14.7456 74.8033C14.7456 75.2373 14.6017 75.4543 14.314 75.4543Z" fill="white"/>
<path d="M42.3338 39.6326H67.2818C67.7032 39.6326 68.0437 39.7516 68.303 39.9897L69.4216 44.7206V45.3008C69.2919 45.6579 69.0487 45.8513 68.6921 45.881C67.7843 44.6908 66.455 44.1255 64.7043 44.185H52.5464V54.2271H66.3091C66.6982 54.3462 66.8927 54.5991 66.8927 54.9859V57.9762C66.8603 58.4225 66.6009 58.6754 66.1146 58.7349C57.9445 58.7647 53.4218 58.7796 52.5464 58.7796V58.9581C52.5464 65.7718 52.5464 69.2382 52.5464 69.3573H64.1693C66.9251 69.2085 68.303 68.6283 68.303 67.6166H68.8866C69.2108 67.7356 69.3891 67.9885 69.4216 68.3754L68.6921 74.5345C68.53 74.9213 68.2382 75.0998 67.8167 75.0701H44.9113C44.3601 74.8023 44.1007 74.2816 44.1332 73.508V45.1223C44.1332 43.2775 42.9984 41.8195 40.7289 40.7484C41.0207 40.0045 41.5557 39.6326 42.3338 39.6326Z" fill="white"/>
<path d="M88.0124 35.8292H93.212C94.1453 35.7624 94.7452 36.1465 95.0119 36.9815C103.611 61.9658 107.911 74.6416 107.911 75.009C107.911 75.2762 107.778 75.4098 107.511 75.4098H105.361C101.328 75.4098 98.3616 72.9882 96.4618 68.145C95.7618 66.2746 95.3785 65.2391 95.3118 65.0387H82.3128C82.2462 65.2057 81.2962 68.1283 79.463 73.8066C79.2297 74.2408 78.7797 74.6082 78.1131 74.9088C76.9466 75.3764 75.58 75.5434 74.0134 75.4098C73.7468 75.4098 73.6135 75.2762 73.6135 75.009C74.6801 71.1679 78.8797 58.492 86.2125 36.9815C86.5458 36.1799 87.1458 35.7958 88.0124 35.8292ZM89.0123 44.5971L83.8627 60.2289H93.9119V60.0285L89.2123 44.5971H89.0123Z" fill="white"/>
<path d="M109.973 39.6487H119.837C120.673 39.5593 121.271 39.8424 121.63 40.4982C127.368 54.06 130.238 61.0942 130.238 61.6009H130.417C135.259 48.4862 138.054 41.288 138.801 40.0064C139.13 39.7381 139.503 39.6189 139.922 39.6487H146.961C147.11 39.6487 147.304 39.8275 147.543 40.1852V75.0584C145.003 75.0882 143.068 74.6709 141.738 73.8065C140.408 72.9421 139.742 71.735 139.742 70.1851V50.6024H139.518L131.045 73.9407L129.834 74.0301C128.011 74.0301 126.756 73.4637 126.068 72.3311C123.348 65.0286 120.404 57.3684 117.236 49.3506H117.057V70.1851C117.057 72.3907 115.996 73.8959 113.874 74.7007C113.007 74.9988 112.469 75.118 112.26 75.0584L112.036 74.7007V46.3998C112.036 43.6278 110.915 41.6904 108.673 40.5876C108.822 39.9617 109.256 39.6487 109.973 39.6487ZM112.293 75.0681C112.192 75.0681 112.141 75.0263 112.141 74.9428C112.141 74.8592 112.141 74.7757 112.141 74.6922C112.344 74.7757 112.446 74.8592 112.446 74.9428C112.446 75.0472 112.395 75.0889 112.293 75.0681Z" fill="white"/>
<path d="M175.031 34.2974H175.23C175.496 34.3307 175.645 34.5136 175.679 34.8462L177.472 46.5693C177.472 47.0016 177.289 47.2178 176.924 47.2178H174.583C174.118 47.2511 173.802 47.0682 173.636 46.6691C171.312 42.8112 168.157 40.7327 164.173 40.4334C161.051 40.4334 159.491 41.8634 159.491 44.7235C159.491 47.1513 162.595 49.6622 168.805 52.2563C175.413 54.9501 178.866 58.9742 179.165 64.3286C179.398 71.5787 174.666 75.2868 164.97 75.4531C158.926 75.5196 154.294 72.8923 151.073 67.5712C150.94 67.2386 150.94 66.9559 151.073 66.7231L152.866 64.7776C153.298 64.6446 153.646 64.761 153.912 65.1268C157 68.7518 160.62 70.6308 164.77 70.7639C169.154 70.7639 171.345 69.2507 171.345 66.2243C171.179 64.4616 168.025 61.9341 161.881 58.6416C156.768 55.4822 153.563 52.3228 152.268 49.1634C151.704 47.7998 151.554 46.0372 151.82 43.8755C153.314 38.3215 157.731 35.5945 165.069 35.6942C167.925 35.8273 170.415 36.4591 172.541 37.5899C173.703 37.1243 174.533 36.0268 175.031 34.2974Z" fill="white"/>
</svg>
