<svg width="280" height="170" viewBox="0 0 280 170" fill="none" xmlns="http://www.w3.org/2000/svg">
<g opacity="0.98">
<g filter="url(#filter0_b_284_170)">
<rect width="280" height="170" rx="20" fill="#14192B" fill-opacity="0.9"/>
<rect x="1.5" y="1.5" width="277" height="167" rx="18.5" stroke="url(#paint0_linear_284_170)" stroke-width="3"/>
</g>
<path d="M72.743 113V99.4H74.563C75.7764 101.133 76.8897 102.88 77.903 104.64C78.9297 106.387 79.8897 108.213 80.783 110.12L80.583 104.92V99.4H82.283V113H80.463C79.5297 111.053 78.563 109.16 77.563 107.32C76.5764 105.467 75.4964 103.66 74.323 101.9L74.443 107.44V113H72.743ZM94.0316 107.44V108.64C94.0316 110.053 93.665 111.167 92.9316 111.98C92.2116 112.793 91.1783 113.2 89.8316 113.2C88.4983 113.2 87.465 112.793 86.7316 111.98C85.9983 111.167 85.6316 110.053 85.6316 108.64V107.44C85.6316 106.053 85.9916 104.953 86.7116 104.14C87.445 103.313 88.485 102.9 89.8316 102.9C91.1783 102.9 92.2116 103.313 92.9316 104.14C93.665 104.953 94.0316 106.053 94.0316 107.44ZM92.3316 107.44C92.3316 106.493 92.1183 105.753 91.6916 105.22C91.265 104.673 90.645 104.4 89.8316 104.4C89.0316 104.4 88.4116 104.673 87.9716 105.22C87.545 105.753 87.3316 106.493 87.3316 107.44V108.64C87.3316 109.627 87.545 110.387 87.9716 110.92C88.4116 111.453 89.0316 111.72 89.8316 111.72C90.645 111.72 91.265 111.453 91.6916 110.92C92.1183 110.387 92.3316 109.627 92.3316 108.64V107.44ZM103.107 100.68H101.267V98.84H103.107V100.68ZM103.007 113H101.367V103.1H103.007V113ZM111.203 104.44C110.83 104.44 110.41 104.54 109.943 104.74C109.477 104.927 108.89 105.3 108.183 105.86V113H106.543V103.1H108.103V104.48C108.81 103.893 109.437 103.487 109.983 103.26C110.53 103.02 111.07 102.9 111.603 102.9C112.23 102.9 112.75 103.047 113.163 103.34C113.577 103.62 113.883 104.027 114.083 104.56C114.817 103.933 115.47 103.5 116.043 103.26C116.63 103.02 117.203 102.9 117.763 102.9C118.643 102.9 119.317 103.193 119.783 103.78C120.25 104.353 120.483 105.173 120.483 106.24V113H118.843V106.48C118.843 105.12 118.35 104.44 117.363 104.44C116.99 104.44 116.563 104.54 116.083 104.74C115.617 104.927 115.03 105.3 114.323 105.86C114.337 105.913 114.343 105.973 114.343 106.04C114.343 106.107 114.343 106.173 114.343 106.24V113H112.703V106.48C112.703 105.12 112.203 104.44 111.203 104.44ZM131.166 113.1C130.553 113.1 130.059 112.96 129.686 112.68C129.326 112.4 129.073 112.053 128.926 111.64C128.273 112.213 127.679 112.62 127.146 112.86C126.613 113.087 126.079 113.2 125.546 113.2C124.679 113.2 124.039 112.92 123.626 112.36C123.213 111.8 123.006 111.113 123.006 110.3C123.006 109.753 123.106 109.267 123.306 108.84C123.506 108.413 123.846 108.08 124.326 107.84C124.806 107.587 125.453 107.46 126.266 107.46C126.626 107.46 127.019 107.487 127.446 107.54C127.873 107.58 128.306 107.633 128.746 107.7V106.36C128.746 105.613 128.579 105.107 128.246 104.84C127.926 104.56 127.453 104.42 126.826 104.42C125.973 104.42 125.019 104.653 123.966 105.12L123.446 103.76C124.059 103.48 124.646 103.267 125.206 103.12C125.766 102.973 126.333 102.9 126.906 102.9C127.839 102.9 128.553 103.053 129.046 103.36C129.539 103.667 129.879 104.073 130.066 104.58C130.253 105.087 130.346 105.64 130.346 106.24V110.52C130.346 110.827 130.406 111.087 130.526 111.3C130.646 111.5 130.886 111.6 131.246 111.6H131.466V113.1H131.166ZM124.626 110.28C124.626 110.733 124.733 111.1 124.946 111.38C125.159 111.66 125.466 111.8 125.866 111.8C126.213 111.8 126.613 111.7 127.066 111.5C127.519 111.287 128.079 110.867 128.746 110.24V108.98C127.839 108.833 127.039 108.76 126.346 108.76C125.733 108.76 125.293 108.887 125.026 109.14C124.759 109.393 124.626 109.773 124.626 110.28ZM141.709 114.24C141.709 115.213 141.309 115.993 140.509 116.58C139.723 117.167 138.636 117.46 137.249 117.46C136.556 117.46 135.829 117.367 135.069 117.18C134.323 116.993 133.616 116.693 132.949 116.28L133.509 115C134.176 115.373 134.816 115.633 135.429 115.78C136.056 115.94 136.663 116.02 137.249 116.02C138.156 116.02 138.856 115.873 139.349 115.58C139.843 115.287 140.089 114.893 140.089 114.4C140.089 114.04 139.969 113.76 139.729 113.56C139.489 113.373 139.103 113.28 138.569 113.28H136.269C135.403 113.28 134.776 113.073 134.389 112.66C134.003 112.247 133.809 111.793 133.809 111.3C133.809 110.953 133.889 110.613 134.049 110.28C134.209 109.933 134.436 109.593 134.729 109.26C134.263 108.98 133.889 108.6 133.609 108.12C133.329 107.627 133.189 107.033 133.189 106.34C133.189 105.58 133.349 104.947 133.669 104.44C134.003 103.933 134.443 103.553 134.989 103.3C135.536 103.033 136.149 102.9 136.829 102.9H137.169C137.636 102.9 138.063 102.967 138.449 103.1H142.009V104.56L139.849 104.26C140.129 104.5 140.356 104.8 140.529 105.16C140.703 105.507 140.789 105.933 140.789 106.44C140.789 107.16 140.623 107.767 140.289 108.26C139.969 108.753 139.536 109.133 138.989 109.4C138.443 109.653 137.836 109.78 137.169 109.78H136.829C136.656 109.78 136.489 109.773 136.329 109.76C136.169 109.733 136.009 109.707 135.849 109.68C135.463 110.107 135.269 110.527 135.269 110.94C135.269 111.473 135.643 111.74 136.389 111.74H138.629C139.589 111.74 140.343 111.953 140.889 112.38C141.436 112.807 141.709 113.427 141.709 114.24ZM137.169 108.36C137.689 108.36 138.149 108.193 138.549 107.86C138.949 107.527 139.149 107.02 139.149 106.34C139.149 105.673 138.949 105.173 138.549 104.84C138.149 104.493 137.689 104.32 137.169 104.32H136.829C136.296 104.32 135.829 104.493 135.429 104.84C135.029 105.173 134.829 105.673 134.829 106.34C134.829 107.02 135.029 107.527 135.429 107.86C135.829 108.193 136.296 108.36 136.829 108.36H137.169ZM151.36 112.42C150.76 112.713 150.16 112.913 149.56 113.02C148.96 113.14 148.407 113.2 147.9 113.2C146.473 113.2 145.407 112.793 144.7 111.98C144.007 111.167 143.66 110.053 143.66 108.64V107.44C143.66 106.067 144.007 104.967 144.7 104.14C145.407 103.313 146.4 102.9 147.68 102.9C148.36 102.9 148.98 103.04 149.54 103.32C150.113 103.587 150.567 104 150.9 104.56C151.247 105.107 151.42 105.813 151.42 106.68C151.42 107.24 151.34 107.88 151.18 108.6H145.28V108.64C145.28 109.653 145.487 110.42 145.9 110.94C146.327 111.46 147.007 111.72 147.94 111.72C148.367 111.72 148.833 111.667 149.34 111.56C149.86 111.453 150.367 111.287 150.86 111.06L151.36 112.42ZM147.68 104.34C146.907 104.34 146.32 104.593 145.92 105.1C145.533 105.593 145.32 106.293 145.28 107.2H149.76C149.8 106.96 149.82 106.733 149.82 106.52C149.82 105.773 149.607 105.227 149.18 104.88C148.767 104.52 148.267 104.34 147.68 104.34ZM163.814 104.54H160.574V113H158.934V104.54H157.214V103.1H158.934V101.46C158.934 100.847 159.034 100.28 159.234 99.76C159.447 99.2267 159.787 98.8 160.254 98.48C160.72 98.16 161.34 98 162.114 98C162.5 98 162.907 98.0467 163.334 98.14C163.774 98.22 164.18 98.3467 164.554 98.52L164.094 99.9C163.414 99.6333 162.82 99.5 162.314 99.5C161.754 99.5 161.32 99.6533 161.014 99.96C160.72 100.267 160.574 100.76 160.574 101.44V103.1H163.814V104.54ZM173.446 107.44V108.64C173.446 110.053 173.079 111.167 172.346 111.98C171.626 112.793 170.592 113.2 169.246 113.2C167.912 113.2 166.879 112.793 166.146 111.98C165.412 111.167 165.046 110.053 165.046 108.64V107.44C165.046 106.053 165.406 104.953 166.126 104.14C166.859 103.313 167.899 102.9 169.246 102.9C170.592 102.9 171.626 103.313 172.346 104.14C173.079 104.953 173.446 106.053 173.446 107.44ZM171.746 107.44C171.746 106.493 171.532 105.753 171.106 105.22C170.679 104.673 170.059 104.4 169.246 104.4C168.446 104.4 167.826 104.673 167.386 105.22C166.959 105.753 166.746 106.493 166.746 107.44V108.64C166.746 109.627 166.959 110.387 167.386 110.92C167.826 111.453 168.446 111.72 169.246 111.72C170.059 111.72 170.679 111.453 171.106 110.92C171.532 110.387 171.746 109.627 171.746 108.64V107.44ZM182.526 113V111.6C181.833 112.2 181.213 112.62 180.666 112.86C180.119 113.087 179.573 113.2 179.026 113.2C178.146 113.2 177.473 112.913 177.006 112.34C176.539 111.753 176.306 110.933 176.306 109.88V103.1H177.946V109.64C177.946 110.333 178.066 110.847 178.306 111.18C178.559 111.5 178.933 111.66 179.426 111.66C179.799 111.66 180.219 111.567 180.686 111.38C181.153 111.193 181.733 110.82 182.426 110.26V103.1H184.066V113H182.526ZM192.358 104.44C191.985 104.44 191.545 104.533 191.038 104.72C190.545 104.907 189.945 105.287 189.238 105.86V113H187.598V103.1H189.158V104.48C189.865 103.88 190.505 103.467 191.078 103.24C191.665 103.013 192.225 102.9 192.758 102.9C193.678 102.9 194.378 103.193 194.858 103.78C195.351 104.353 195.598 105.173 195.598 106.24V113H193.958V106.48C193.958 105.12 193.425 104.44 192.358 104.44ZM205.044 113V111.62C204.43 112.207 203.87 112.62 203.364 112.86C202.87 113.087 202.357 113.2 201.824 113.2C200.77 113.2 199.957 112.8 199.384 112C198.824 111.2 198.544 110.08 198.544 108.64V107.48C198.544 106.08 198.89 104.967 199.584 104.14C200.29 103.313 201.31 102.9 202.644 102.9C203.03 102.9 203.417 102.94 203.804 103.02C204.19 103.1 204.577 103.213 204.964 103.36V98.2H206.604V113H205.044ZM200.244 108.64C200.244 109.68 200.404 110.447 200.724 110.94C201.057 111.42 201.55 111.66 202.204 111.66C202.59 111.66 202.99 111.567 203.404 111.38C203.817 111.18 204.337 110.773 204.964 110.16V104.88C204.577 104.707 204.204 104.587 203.844 104.52C203.484 104.44 203.13 104.4 202.784 104.4C201.877 104.4 201.224 104.673 200.824 105.22C200.437 105.767 200.244 106.52 200.244 107.48V108.64Z" fill="white"/>
</g>
<path d="M123 59.1429C123 56.8578 124.906 55 127.25 55H152.75C155.094 55 157 56.8578 157 59.1429V79.8571C157 82.1422 155.094 84 152.75 84H127.25C124.906 84 123 82.1422 123 79.8571V59.1429ZM144.502 66.0368C144.204 65.6096 143.712 65.3571 143.188 65.3571C142.663 65.3571 142.165 65.6096 141.873 66.0368L136.095 74.2967L134.336 72.154C134.03 71.785 133.572 71.5714 133.094 71.5714C132.616 71.5714 132.151 71.785 131.852 72.154L127.602 77.3326C127.217 77.7987 127.144 78.4395 127.409 78.9768C127.675 79.5141 128.233 79.8571 128.844 79.8571H135.219H137.344H151.156C151.747 79.8571 152.292 79.54 152.564 79.0286C152.836 78.5172 152.803 77.9022 152.471 77.4297L144.502 66.0368ZM130.438 65.3571C131.283 65.3571 132.094 65.0298 132.691 64.4471C133.289 63.8644 133.625 63.0741 133.625 62.25C133.625 61.4259 133.289 60.6356 132.691 60.0529C132.094 59.4702 131.283 59.1429 130.438 59.1429C129.592 59.1429 128.781 59.4702 128.184 60.0529C127.586 60.6356 127.25 61.4259 127.25 62.25C127.25 63.0741 127.586 63.8644 128.184 64.4471C128.781 65.0298 129.592 65.3571 130.438 65.3571Z" fill="#E4E4E4"/>
<path d="M164.408 50.4156C165.189 49.6347 165.189 48.3665 164.408 47.5857C163.627 46.8048 162.359 46.8048 161.578 47.5857L155 54.1701L148.416 47.5919C147.635 46.811 146.367 46.811 145.586 47.5919C144.805 48.3728 144.805 49.6409 145.586 50.4218L152.17 57L145.592 63.5844C144.811 64.3653 144.811 65.6335 145.592 66.4143C146.373 67.1952 147.641 67.1952 148.422 66.4143L155 59.8299L161.584 66.4081C162.365 67.189 163.633 67.189 164.414 66.4081C165.195 65.6272 165.195 64.359 164.414 63.5782L157.83 57L164.408 50.4156Z" fill="#D87474"/>
<defs>
<filter id="filter0_b_284_170" x="-20" y="-20" width="320" height="210" filterUnits="userSpaceOnUse" color-interpolation-filters="sRGB">
<feFlood flood-opacity="0" result="BackgroundImageFix"/>
<feGaussianBlur in="BackgroundImageFix" stdDeviation="10"/>
<feComposite in2="SourceAlpha" operator="in" result="effect1_backgroundBlur_284_170"/>
<feBlend mode="normal" in="SourceGraphic" in2="effect1_backgroundBlur_284_170" result="shape"/>
</filter>
<linearGradient id="paint0_linear_284_170" x1="140" y1="0" x2="140" y2="170" gradientUnits="userSpaceOnUse">
<stop stop-color="#AC5B5B"/>
<stop offset="1" stop-color="#CD7777" stop-opacity="0.42"/>
</linearGradient>
</defs>
</svg>
