<svg width="280" height="220" viewBox="0 0 280 220" fill="none" xmlns="http://www.w3.org/2000/svg">
<g opacity="0.98">
<g filter="url(#filter0_b_284_170)">
<rect width="280" height="220" rx="20" fill="#14192B" fill-opacity="0.9"/>
<rect x="1.5" y="1.5" width="277" height="217" rx="18.5" stroke="url(#paint0_linear_284_170)" stroke-width="3"/>
</g>
<path d="M72.743 130V116.4H74.563C75.7764 118.133 76.8897 119.88 77.903 121.64C78.9297 123.387 79.8897 125.213 80.783 127.12L80.583 121.92V116.4H82.283V130H80.463C79.5297 128.053 78.563 126.16 77.563 124.32C76.5764 122.467 75.4964 120.66 74.323 118.9L74.443 124.44V130H72.743ZM94.0316 124.44V125.64C94.0316 127.053 93.665 128.167 92.9316 128.98C92.2116 129.793 91.1783 130.2 89.8316 130.2C88.4983 130.2 87.465 129.793 86.7316 128.98C85.9983 128.167 85.6316 127.053 85.6316 125.64V124.44C85.6316 123.053 85.9916 121.953 86.7116 121.14C87.445 120.313 88.485 119.9 89.8316 119.9C91.1783 119.9 92.2116 120.313 92.9316 121.14C93.665 121.953 94.0316 123.053 94.0316 124.44ZM92.3316 124.44C92.3316 123.493 92.1183 122.753 91.6916 122.22C91.265 121.673 90.645 121.4 89.8316 121.4C89.0316 121.4 88.4116 121.673 87.9716 122.22C87.545 122.753 87.3316 123.493 87.3316 124.44V125.64C87.3316 126.627 87.545 127.387 87.9716 127.92C88.4116 128.453 89.0316 128.72 89.8316 128.72C90.645 128.72 91.265 128.453 91.6916 127.92C92.1183 127.387 92.3316 126.627 92.3316 125.64V124.44ZM103.107 117.68H101.267V115.84H103.107V117.68ZM103.007 130H101.367V120.1H103.007V130ZM111.203 121.44C110.83 121.44 110.41 121.54 109.943 121.74C109.477 121.927 108.89 122.3 108.183 122.86V130H106.543V120.1H108.103V121.48C108.81 120.893 109.437 120.487 109.983 120.26C110.53 120.02 111.07 119.9 111.603 119.9C112.23 119.9 112.75 120.047 113.163 120.34C113.577 120.62 113.883 121.027 114.083 121.56C114.817 120.933 115.47 120.5 116.043 120.26C116.63 120.02 117.203 119.9 117.763 119.9C118.643 119.9 119.317 120.193 119.783 120.78C120.25 121.353 120.483 122.173 120.483 123.24V130H118.843V123.48C118.843 122.12 118.35 121.44 117.363 121.44C116.99 121.44 116.563 121.54 116.083 121.74C115.617 121.927 115.03 122.3 114.323 122.86C114.337 122.913 114.343 122.973 114.343 123.04C114.343 123.107 114.343 123.173 114.343 123.24V130H112.703V123.48C112.703 122.12 112.203 121.44 111.203 121.44ZM131.166 130.1C130.553 130.1 130.059 129.96 129.686 129.68C129.326 129.4 129.073 129.053 128.926 128.64C128.273 129.213 127.679 129.62 127.146 129.86C126.613 130.087 126.079 130.2 125.546 130.2C124.679 130.2 124.039 129.92 123.626 129.36C123.213 128.8 123.006 128.113 123.006 127.3C123.006 126.753 123.106 126.267 123.306 125.84C123.506 125.413 123.846 125.08 124.326 124.84C124.806 124.587 125.453 124.46 126.266 124.46C126.626 124.46 127.019 124.487 127.446 124.54C127.873 124.58 128.306 124.633 128.746 124.7V123.36C128.746 122.613 128.579 122.107 128.246 121.84C127.926 121.56 127.453 121.42 126.826 121.42C125.973 121.42 125.019 121.653 123.966 122.12L123.446 120.76C124.059 120.48 124.646 120.267 125.206 120.12C125.766 119.973 126.333 119.9 126.906 119.9C127.839 119.9 128.553 120.053 129.046 120.36C129.539 120.667 129.879 121.073 130.066 121.58C130.253 122.087 130.346 122.64 130.346 123.24V127.52C130.346 127.827 130.406 128.087 130.526 128.3C130.646 128.5 130.886 128.6 131.246 128.6H131.466V130.1H131.166ZM124.626 127.28C124.626 127.733 124.733 128.1 124.946 128.38C125.159 128.66 125.466 128.8 125.866 128.8C126.213 128.8 126.613 128.7 127.066 128.5C127.519 128.287 128.079 127.867 128.746 127.24V125.98C127.839 125.833 127.039 125.76 126.346 125.76C125.733 125.76 125.293 125.887 125.026 126.14C124.759 126.393 124.626 126.773 124.626 127.28ZM141.709 131.24C141.709 132.213 141.309 132.993 140.509 133.58C139.723 134.167 138.636 134.46 137.249 134.46C136.556 134.46 135.829 134.367 135.069 134.18C134.323 133.993 133.616 133.693 132.949 133.28L133.509 132C134.176 132.373 134.816 132.633 135.429 132.78C136.056 132.94 136.663 133.02 137.249 133.02C138.156 133.02 138.856 132.873 139.349 132.58C139.843 132.287 140.089 131.893 140.089 131.4C140.089 131.04 139.969 130.76 139.729 130.56C139.489 130.373 139.103 130.28 138.569 130.28H136.269C135.403 130.28 134.776 130.073 134.389 129.66C134.003 129.247 133.809 128.793 133.809 128.3C133.809 127.953 133.889 127.613 134.049 127.28C134.209 126.933 134.436 126.593 134.729 126.26C134.263 125.98 133.889 125.6 133.609 125.12C133.329 124.627 133.189 124.033 133.189 123.34C133.189 122.58 133.349 121.947 133.669 121.44C134.003 120.933 134.443 120.553 134.989 120.3C135.536 120.033 136.149 119.9 136.829 119.9H137.169C137.636 119.9 138.063 119.967 138.449 120.1H142.009V121.56L139.849 121.26C140.129 121.5 140.356 121.8 140.529 122.16C140.703 122.507 140.789 122.933 140.789 123.44C140.789 124.16 140.623 124.767 140.289 125.26C139.969 125.753 139.536 126.133 138.989 126.4C138.443 126.653 137.836 126.78 137.169 126.78H136.829C136.656 126.78 136.489 126.773 136.329 126.76C136.169 126.733 136.009 126.707 135.849 126.68C135.463 127.107 135.269 127.527 135.269 127.94C135.269 128.473 135.643 128.74 136.389 128.74H138.629C139.589 128.74 140.343 128.953 140.889 129.38C141.436 129.807 141.709 130.427 141.709 131.24ZM137.169 125.36C137.689 125.36 138.149 125.193 138.549 124.86C138.949 124.527 139.149 124.02 139.149 123.34C139.149 122.673 138.949 122.173 138.549 121.84C138.149 121.493 137.689 121.32 137.169 121.32H136.829C136.296 121.32 135.829 121.493 135.429 121.84C135.029 122.173 134.829 122.673 134.829 123.34C134.829 124.02 135.029 124.527 135.429 124.86C135.829 125.193 136.296 125.36 136.829 125.36H137.169ZM151.36 129.42C150.76 129.713 150.16 129.913 149.56 130.02C148.96 130.14 148.407 130.2 147.9 130.2C146.473 130.2 145.407 129.793 144.7 128.98C144.007 128.167 143.66 127.053 143.66 125.64V124.44C143.66 123.067 144.007 121.967 144.7 121.14C145.407 120.313 146.4 119.9 147.68 119.9C148.36 119.9 148.98 120.04 149.54 120.32C150.113 120.587 150.567 121 150.9 121.56C151.247 122.107 151.42 122.813 151.42 123.68C151.42 124.24 151.34 124.88 151.18 125.6H145.28V125.64C145.28 126.653 145.487 127.42 145.9 127.94C146.327 128.46 147.007 128.72 147.94 128.72C148.367 128.72 148.833 128.667 149.34 128.56C149.86 128.453 150.367 128.287 150.86 128.06L151.36 129.42ZM147.68 121.34C146.907 121.34 146.32 121.593 145.92 122.1C145.533 122.593 145.32 123.293 145.28 124.2H149.76C149.8 123.96 149.82 123.733 149.82 123.52C149.82 122.773 149.607 122.227 149.18 121.88C148.767 121.52 148.267 121.34 147.68 121.34ZM163.814 121.54H160.574V130H158.934V121.54H157.214V120.1H158.934V118.46C158.934 117.847 159.034 117.28 159.234 116.76C159.447 116.227 159.787 115.8 160.254 115.48C160.72 115.16 161.34 115 162.114 115C162.5 115 162.907 115.047 163.334 115.14C163.774 115.22 164.18 115.347 164.554 115.52L164.094 116.9C163.414 116.633 162.82 116.5 162.314 116.5C161.754 116.5 161.32 116.653 161.014 116.96C160.72 117.267 160.574 117.76 160.574 118.44V120.1H163.814V121.54ZM173.446 124.44V125.64C173.446 127.053 173.079 128.167 172.346 128.98C171.626 129.793 170.592 130.2 169.246 130.2C167.912 130.2 166.879 129.793 166.146 128.98C165.412 128.167 165.046 127.053 165.046 125.64V124.44C165.046 123.053 165.406 121.953 166.126 121.14C166.859 120.313 167.899 119.9 169.246 119.9C170.592 119.9 171.626 120.313 172.346 121.14C173.079 121.953 173.446 123.053 173.446 124.44ZM171.746 124.44C171.746 123.493 171.532 122.753 171.106 122.22C170.679 121.673 170.059 121.4 169.246 121.4C168.446 121.4 167.826 121.673 167.386 122.22C166.959 122.753 166.746 123.493 166.746 124.44V125.64C166.746 126.627 166.959 127.387 167.386 127.92C167.826 128.453 168.446 128.72 169.246 128.72C170.059 128.72 170.679 128.453 171.106 127.92C171.532 127.387 171.746 126.627 171.746 125.64V124.44ZM182.526 130V128.6C181.833 129.2 181.213 129.62 180.666 129.86C180.119 130.087 179.573 130.2 179.026 130.2C178.146 130.2 177.473 129.913 177.006 129.34C176.539 128.753 176.306 127.933 176.306 126.88V120.1H177.946V126.64C177.946 127.333 178.066 127.847 178.306 128.18C178.559 128.5 178.933 128.66 179.426 128.66C179.799 128.66 180.219 128.567 180.686 128.38C181.153 128.193 181.733 127.82 182.426 127.26V120.1H184.066V130H182.526ZM192.358 121.44C191.985 121.44 191.545 121.533 191.038 121.72C190.545 121.907 189.945 122.287 189.238 122.86V130H187.598V120.1H189.158V121.48C189.865 120.88 190.505 120.467 191.078 120.24C191.665 120.013 192.225 119.9 192.758 119.9C193.678 119.9 194.378 120.193 194.858 120.78C195.351 121.353 195.598 122.173 195.598 123.24V130H193.958V123.48C193.958 122.12 193.425 121.44 192.358 121.44ZM205.044 130V128.62C204.43 129.207 203.87 129.62 203.364 129.86C202.87 130.087 202.357 130.2 201.824 130.2C200.77 130.2 199.957 129.8 199.384 129C198.824 128.2 198.544 127.08 198.544 125.64V124.48C198.544 123.08 198.89 121.967 199.584 121.14C200.29 120.313 201.31 119.9 202.644 119.9C203.03 119.9 203.417 119.94 203.804 120.02C204.19 120.1 204.577 120.213 204.964 120.36V115.2H206.604V130H205.044ZM200.244 125.64C200.244 126.68 200.404 127.447 200.724 127.94C201.057 128.42 201.55 128.66 202.204 128.66C202.59 128.66 202.99 128.567 203.404 128.38C203.817 128.18 204.337 127.773 204.964 127.16V121.88C204.577 121.707 204.204 121.587 203.844 121.52C203.484 121.44 203.13 121.4 202.784 121.4C201.877 121.4 201.224 121.673 200.824 122.22C200.437 122.767 200.244 123.52 200.244 124.48V125.64Z" fill="white"/>
<path d="M155.053 61.4649C156.302 60.2155 156.302 58.1865 155.053 56.9371C153.804 55.6876 151.774 55.6876 150.525 56.9371L140 67.4721L129.465 56.9471C128.216 55.6976 126.186 55.6976 124.937 56.9471C123.688 58.1965 123.688 60.2255 124.937 61.4749L135.472 72L124.947 82.5351C123.698 83.7845 123.698 85.8135 124.947 87.0629C126.196 88.3124 128.226 88.3124 129.475 87.0629L140 76.5279L150.535 87.0529C151.784 88.3024 153.814 88.3024 155.063 87.0529C156.312 85.8035 156.312 83.7745 155.063 82.5251L144.528 72L155.053 61.4649Z" fill="#D87474"/>
</g>
<defs>
<filter id="filter0_b_284_170" x="-20" y="-20" width="320" height="260" filterUnits="userSpaceOnUse" color-interpolation-filters="sRGB">
<feFlood flood-opacity="0" result="BackgroundImageFix"/>
<feGaussianBlur in="BackgroundImageFix" stdDeviation="10"/>
<feComposite in2="SourceAlpha" operator="in" result="effect1_backgroundBlur_284_170"/>
<feBlend mode="normal" in="SourceGraphic" in2="effect1_backgroundBlur_284_170" result="shape"/>
</filter>
<linearGradient id="paint0_linear_284_170" x1="140" y1="0" x2="140" y2="220" gradientUnits="userSpaceOnUse">
<stop stop-color="#AC5B5B"/>
<stop offset="1" stop-color="#A3A3A3" stop-opacity="0"/>
</linearGradient>
</defs>
</svg>
