<svg width="210" height="210" viewBox="0 0 210 210" fill="none" xmlns="http://www.w3.org/2000/svg">
<circle cx="105" cy="105" r="105" fill="#454071"/>
<path d="M105.118 33C104 33 102.882 33.934 102.882 35.0548C98.5956 49.252 94.8686 63.8227 86.6691 76.3385C83.6875 81.0086 79.5878 84.7447 74.7426 87.36C63.3752 93.8981 50.517 97.6342 38.0315 101.37C36.168 101.931 34.3045 103.052 33 104.546C34.3045 105.854 35.9816 106.788 37.8451 107.535C51.2624 111.831 65.2387 115.567 77.1652 123.226C84.2466 127.71 88.5326 135.182 91.887 142.654C95.9867 153.115 99.7137 163.576 102.695 174.411C103.627 177.4 107.354 175.718 107.354 173.103C110.149 162.829 113.504 152.741 117.417 142.841L117.231 142.094L117.976 141.907C120.026 137.797 122.262 134.061 124.871 130.325C128.412 125.468 133.443 122.479 138.661 119.677L144.252 117.062C153.196 113.326 162.514 110.524 171.645 107.722C173.509 106.974 176.49 106.414 175.931 103.799C174.254 102.491 172.204 101.557 170.154 100.997C158.042 97.2606 145.742 93.5245 134.561 87.1732C129.716 84.5579 125.803 80.635 122.821 75.9649C114.994 63.4491 111.081 49.0651 106.981 35.2416C107.354 33.7472 106.422 33 105.118 33Z" fill="#F2C65D"/>
</svg>
