<?xml version="1.0" encoding="UTF-8"?>
<svg width="416px" height="416px" viewBox="0 0 416 416" version="1.1" xmlns="http://www.w3.org/2000/svg" xmlns:xlink="http://www.w3.org/1999/xlink">
    <title>Path</title>
    <g id="Page-1" stroke="none" stroke-width="1" fill="none" fill-rule="evenodd">
        <path d="M240,32 C240,14.3 225.7,0 208,0 C190.3,0 176,14.3 176,32 L176,176 L32,176 C14.3,176 0,190.3 0,208 C0,225.7 14.3,240 32,240 L176,240 L176,384 C176,401.7 190.3,416 208,416 C225.7,416 240,401.7 240,384 L240,240 L384,240 C401.7,240 416,225.7 416,208 C416,190.3 401.7,176 384,176 L240,176 L240,32 Z" id="Path" fill="#454071" fill-rule="nonzero"></path>
    </g>
</svg>