<svg width="50" height="50" viewBox="0 0 50 50" fill="none" xmlns="http://www.w3.org/2000/svg">
<path d="M43.8162 11.8312C45.3779 10.2694 45.3779 7.73309 43.8162 6.17133C42.2544 4.60956 39.7181 4.60956 38.1563 6.17133L25 19.3402L11.8312 6.18382C10.2694 4.62205 7.73309 4.62205 6.17133 6.18382C4.60956 7.74559 4.60956 10.2819 6.17133 11.8437L19.3402 25L6.18382 38.1688C4.62205 39.7306 4.62205 42.2669 6.18382 43.8287C7.74559 45.3904 10.2819 45.3904 11.8437 43.8287L25 30.6598L38.1688 43.8162C39.7306 45.3779 42.2669 45.3779 43.8287 43.8162C45.3904 42.2544 45.3904 39.7181 43.8287 38.1563L30.6598 25L43.8162 11.8312Z" fill="#D87474"/>
</svg>
