<svg width="30" height="30" viewBox="0 0 30 30" fill="none" xmlns="http://www.w3.org/2000/svg">
<path d="M29.9896 14.9707C29.9896 16.0254 29.2083 16.8516 28.3229 16.8516H26.6563L26.6927 26.2383C26.6927 26.3965 26.6823 26.5547 26.6667 26.7129V27.6562C26.6667 28.9512 25.7344 30 24.5833 30H23.75C23.6927 30 23.6354 30 23.5781 29.9941C23.5052 30 23.4323 30 23.3594 30H21.6667H20.4167C19.2656 30 18.3333 28.9512 18.3333 27.6562V26.25V22.5C18.3333 21.4629 17.5885 20.625 16.6667 20.625H13.3333C12.4115 20.625 11.6667 21.4629 11.6667 22.5V26.25V27.6562C11.6667 28.9512 10.7344 30 9.58333 30H8.33333H6.67188C6.59375 30 6.51563 29.9941 6.4375 29.9883C6.375 29.9941 6.3125 30 6.25 30H5.41667C4.26563 30 3.33333 28.9512 3.33333 27.6562V21.0938C3.33333 21.041 3.33333 20.9824 3.33854 20.9297V16.8516H1.66667C0.729167 16.8516 0 16.0312 0 14.9707C0 14.4434 0.15625 13.9746 0.520833 13.5645L13.875 0.46875C14.2396 0.0585938 14.6563 0 15.0208 0C15.3854 0 15.8021 0.117188 16.1146 0.410156L29.4167 13.5645C29.8333 13.9746 30.0417 14.4434 29.9896 14.9707Z" fill="white"/>
</svg>
