<svg width="30" height="30" viewBox="0 0 30 30" fill="none" xmlns="http://www.w3.org/2000/svg">
<path d="M22.1426 4.82366L29.3379 13.0469C29.7598 13.529 30 14.192 30 14.875C30 15.558 29.7598 16.221 29.3379 16.7031L22.1426 24.9263C21.7676 25.3549 21.2637 25.5893 20.7363 25.5893C19.6406 25.5893 18.75 24.5714 18.75 23.3192V19.1607H11.25C10.2129 19.1607 9.375 18.2031 9.375 17.0179V12.7321C9.375 11.5469 10.2129 10.5893 11.25 10.5893H18.75V6.4308C18.75 5.17857 19.6406 4.16071 20.7363 4.16071C21.2637 4.16071 21.7676 4.40179 22.1426 4.82366ZM9.375 4.16071H5.625C4.58789 4.16071 3.75 5.1183 3.75 6.30357V23.4464C3.75 24.6317 4.58789 25.5893 5.625 25.5893H9.375C10.4121 25.5893 11.25 26.5469 11.25 27.7321C11.25 28.9174 10.4121 29.875 9.375 29.875H5.625C2.51953 29.875 0 26.9955 0 23.4464V6.30357C0 2.75446 2.51953 -0.125 5.625 -0.125H9.375C10.4121 -0.125 11.25 0.832589 11.25 2.01786C11.25 3.20313 10.4121 4.16071 9.375 4.16071Z" fill="white"/>
</svg>
