<?xml version="1.0" encoding="UTF-8"?>
<svg width="320.15px" height="320.15px" viewBox="0 0 320.15 320.15" version="1.1" xmlns="http://www.w3.org/2000/svg" xmlns:xlink="http://www.w3.org/1999/xlink">
    <title>Path</title>
    <g id="Page-1" stroke="none" stroke-width="1" fill="none" fill-rule="evenodd">
        <path d="M310.675,54.675 C323.175,42.175 323.175,21.875 310.675,9.375 C298.175,-3.125 277.875,-3.125 265.375,9.375 L160.075,114.775 L54.675,9.475 C42.175,-3.025 21.875,-3.025 9.375,9.475 C-3.125,21.975 -3.125,42.275 9.375,54.775 L114.775,160.075 L9.475,265.475 C-3.025,277.975 -3.025,298.275 9.475,310.775 C21.975,323.275 42.275,323.275 54.775,310.775 L160.075,205.375 L265.475,310.675 C277.975,323.175 298.275,323.175 310.775,310.675 C323.275,298.175 323.275,277.875 310.775,265.375 L205.375,160.075 L310.675,54.675 Z" id="Path" fill="#FFFFFF" fill-rule="nonzero"></path>
    </g>
</svg>